<?xml version="1.0" encoding="UTF-8" standalone="no"?>
<!-- Created with Inkscape (http://www.inkscape.org/) -->

<svg
   width="161.5891mm"
   height="37.78117mm"
   viewBox="0 0 161.58909 37.78117"
   version="1.1"
   id="svg1"
   inkscape:version="1.4 (e7c3feb1, 2024-10-09)"
   sodipodi:docname="logocmyk_s.svg"
   xmlns:inkscape="http://www.inkscape.org/namespaces/inkscape"
   xmlns:sodipodi="http://sodipodi.sourceforge.net/DTD/sodipodi-0.dtd"
   xmlns="http://www.w3.org/2000/svg"
   xmlns:svg="http://www.w3.org/2000/svg">
  <sodipodi:namedview
     id="namedview1"
     pagecolor="#ffffff"
     bordercolor="#000000"
     borderopacity="0.25"
     inkscape:showpageshadow="2"
     inkscape:pageopacity="0.0"
     inkscape:pagecheckerboard="0"
     inkscape:deskcolor="#d1d1d1"
     inkscape:document-units="mm"
     inkscape:current-layer="layer1"
     showgrid="false" />
  <defs
     id="defs1" />
  <g
     inkscape:label="Layer 1"
     inkscape:groupmode="layer"
     id="layer1"
     transform="translate(-80.689803,-77.779354)">
    <path
       d="m 81.792554,85.433151 c -0.58949,0 -0.97046,0.416131 -0.97046,1.005623 V 103.6708 c 0,2.39218 1.9762,4.02197 4.02195,4.02197 2.08034,0 4.02199,-1.66436 4.02199,-4.02197 V 93.54635 c 0,-2.045406 -1.5603,-4.091223 -4.02199,-4.091223 -0.79761,0 -1.45632,0.207706 -2.01123,0.554487 v -3.57084 c 0,-0.589492 -0.52025,-1.005623 -1.04026,-1.005623 z m 3.05149,6.067845 c 1.07458,0 2.01076,0.901296 2.01076,2.045354 v 10.12445 c -0.0346,1.10948 -0.93618,1.9761 -2.01076,1.9761 -1.07489,0 -2.04586,-0.86662 -2.04586,-1.9761 V 93.54635 c 0,-1.109488 0.93604,-2.045354 2.04586,-2.045354 z"
       style="fill:#4b9a00;fill-opacity:1;stroke:#4b9a00;stroke-width:0.264583;stroke-linecap:butt;stroke-opacity:1;paint-order:markers fill stroke"
       id="path27" />
    <path
       d="m 96.215974,89.455127 c -2.46169,0 -4.02199,2.045817 -4.02199,4.091223 v 10.12445 c 0,2.35761 1.94167,4.02197 4.02199,4.02197 0.83222,0 1.35212,-0.20827 2.14974,-0.58962 0.20814,0.38135 0.45074,0.58962 0.90125,0.58962 0.10406,0 0.970986,-0.0694 0.970986,-1.00562 v -13.1408 c 0,-2.045406 -1.525366,-4.091223 -4.021976,-4.091223 z m 0,2.045869 c 1.1095,0 2.04586,0.935866 2.04586,2.045354 v 10.12445 c 0,1.10948 -0.97094,1.9761 -2.04586,1.9761 -1.0749,0 -2.01073,-0.86662 -2.01073,-1.9761 V 93.54635 c 0,-1.144058 0.93583,-2.045354 2.01073,-2.045354 z"
       style="fill:#4b9a00;fill-opacity:1;stroke:#4b9a00;stroke-width:0.264583;stroke-linecap:butt;stroke-opacity:1;paint-order:markers fill stroke"
       id="path28" />
    <path
       d="m 104.5369,89.455127 c -0.55491,0 -0.97046,0.5202 -0.97046,1.005623 v 16.2264 c 0,0.55492 0.4156,1.00562 1.0051,1.00562 0.55491,0 1.00562,-0.4507 1.00562,-1.00562 v -13.1408 c 0,-1.109488 0.93634,-2.045354 2.01123,-2.045354 1.10951,0 2.04537,0.936083 2.04537,2.080493 v 13.105661 c 0,0.55492 0.48564,1.00562 1.00562,1.00562 0.5895,0 0.971,-0.4507 0.971,-1.00562 v -13.1408 c 0,-1.109488 0.93633,-2.045354 2.01125,-2.045354 1.10948,0 2.04534,0.936083 2.04534,2.080493 v 13.105661 c 0,0.55492 0.45072,1.00562 1.00563,1.00562 0.58915,0 0.97099,-0.4507 0.97099,-1.00562 v -13.1408 c 0,-2.045406 -1.52572,-4.091223 -4.02196,-4.091223 -1.07492,0 -2.11552,0.4161 -3.01688,1.352373 -0.69355,-0.797632 -1.73329,-1.352373 -3.01636,-1.352373 -0.79761,0 -1.52556,0.242848 -2.08047,0.589627 0,0 -0.34695,-0.589627 -0.97102,-0.589627 z"
       style="fill:#4b9a00;fill-opacity:1;stroke:#4b9a00;stroke-width:0.264583;stroke-linecap:butt;stroke-opacity:1;paint-order:markers fill stroke"
       id="path29" />
    <path
       d="m 122.01131,85.433151 c -0.58949,0 -0.97049,0.416131 -0.97049,1.005623 V 103.6708 c 0,2.39218 1.97622,4.02197 4.02198,4.02197 2.08031,0 4.02196,-1.66436 4.02196,-4.02197 V 93.54635 c 0,-2.045406 -1.56028,-4.091223 -4.02196,-4.091223 -0.79764,0 -1.45635,0.207706 -2.01126,0.554487 v -3.57084 c 0,-0.589492 -0.52025,-1.005623 -1.04023,-1.005623 z m 3.05149,6.067845 c 1.07455,0 2.01073,0.901296 2.01073,2.045354 v 10.12445 c -0.0346,1.10948 -0.93618,1.9761 -2.01073,1.9761 -1.07492,0 -2.04589,-0.86662 -2.04589,-1.9761 V 93.54635 c 0,-1.109488 0.93604,-2.045354 2.04589,-2.045354 z"
       style="fill:#4b9a00;fill-opacity:1;stroke:#4b9a00;stroke-width:0.264583;stroke-linecap:butt;stroke-opacity:1;paint-order:markers fill stroke"
       id="path30" />
    <path
       d="m 139.63348,82.889119 c -0.2514,-0.0043 -0.51149,0.09962 -0.73691,0.325046 l -2.94712,2.947106 c -0.38134,0.381352 -0.41592,0.970605 0,1.421101 0.4163,0.381354 1.04029,0.381354 1.42163,0 l 2.94712,-2.947107 c 0.41592,-0.415925 0.41592,-1.039749 0,-1.4211 -0.19069,-0.20814 -0.43334,-0.320723 -0.68472,-0.325046 z"
       style="fill:#4b9a00;fill-opacity:1;stroke:#4b9a00;stroke-width:0.264583;stroke-linecap:butt;stroke-opacity:1;paint-order:markers fill stroke"
       id="path32" />
    <path
       d="m 133.59146,89.455127 c -0.58949,0 -1.0051,0.450704 -1.0051,1.005623 v 13.21005 c 0,2.01118 1.59485,4.02197 4.02198,4.02197 2.42711,0 4.02199,-1.97622 4.02199,-4.02197 V 90.46075 c 0,-0.554919 -0.38153,-1.005623 -0.97102,-1.005623 -0.52033,0 -1.0056,0.450704 -1.0056,1.005623 v 13.17542 c 0,1.14406 -0.93589,2.01073 -2.04537,2.01073 -1.07492,0 -2.01125,-0.86662 -2.01125,-1.9761 V 90.46075 c 0,-0.554919 -0.45106,-1.005623 -1.00563,-1.005623 z"
       style="fill:#4b9a00;fill-opacity:1;stroke:#4b9a00;stroke-width:0.264583;stroke-linecap:butt;stroke-opacity:1;paint-order:markers fill stroke"
       id="path31" />
    <path
       d="m 193.29479,89.455127 c -2.08068,0 -4.02248,1.66401 -4.02248,4.021976 v 10.124447 c 0,2.04576 1.5608,4.09122 4.02248,4.09122 0.7973,0 1.45566,-0.20787 2.01023,-0.555 v 2.84375 c 0,1.10913 -0.90072,1.97559 -2.01023,1.97559 -1.07489,0 -2.01123,-0.83225 -2.01123,-1.87224 0,-0.8322 -0.45071,-1.31723 -1.00563,-1.31723 -0.58983,0 -1.00562,0.31172 -1.00562,1.24799 0,2.04576 1.97672,3.98735 4.02248,3.98735 2.28812,0 4.02199,-2.01098 4.02199,-4.02146 V 90.529997 c 0,-0.624417 -0.38222,-1.07487 -0.971,-1.07487 -0.52035,0 -0.79774,0.311991 -0.93638,0.589627 -0.62405,-0.381704 -1.38682,-0.589627 -2.11461,-0.589627 z m 0,2.045869 c 1.07421,0 2.04484,0.866622 2.04484,1.976107 v 10.124447 c 0,1.10949 -0.93533,2.04587 -2.04484,2.04587 -1.07489,0 -2.01123,-0.90181 -2.01123,-2.04587 V 93.477103 c 0.0346,-1.109485 0.93634,-1.976107 2.01123,-1.976107 z"
       style="fill:#4b9a00;fill-opacity:1;stroke:#4b9a00;stroke-width:0.265;stroke-linecap:butt;stroke-dasharray:none;stroke-opacity:1;paint-order:markers fill stroke"
       id="path36" />
    <path
       d="m 201.82348,89.455127 c -0.58915,0 -1.0051,0.450704 -1.0051,1.005623 v 13.21005 c 0,2.01118 1.5947,4.02197 4.02145,4.02197 2.42748,0 4.02199,-1.97657 4.02199,-4.02197 V 90.46075 c 0,-0.554919 -0.38116,-1.005623 -0.97102,-1.005623 -0.51999,0 -1.0051,0.450704 -1.0051,1.005623 v 13.17542 c 0,1.14406 -0.93639,2.01073 -2.04587,2.01073 -1.07492,0 -2.01072,-0.86662 -2.01072,-1.9761 V 90.46075 c 0,-0.554919 -0.45107,-1.005623 -1.00563,-1.005623 z"
       style="fill:#4b9a00;fill-opacity:1;stroke:#4b9a00;stroke-width:0.264583;stroke-linecap:butt;stroke-opacity:1;paint-order:markers fill stroke"
       id="path37" />
    <path
       d="m 216.21226,89.455127 c -2.46168,0 -4.02145,2.045817 -4.02145,4.091223 v 10.12445 c 0,2.35761 1.94148,4.02197 4.02145,4.02197 0.83256,0 1.35176,-0.20827 2.14974,-0.58962 0.20815,0.38135 0.4504,0.58962 0.90125,0.58962 0.10406,0 0.97099,-0.0694 0.97099,-1.00562 v -13.1408 c 0,-2.045406 -1.52572,-4.091223 -4.02198,-4.091223 z m 0,2.045869 c 1.1095,0 2.04586,0.935866 2.04586,2.045354 v 10.12445 c 0,1.10948 -0.97094,1.9761 -2.04586,1.9761 -1.0749,0 -2.01123,-0.86662 -2.01123,-1.9761 V 93.54635 c 0,-1.144058 0.93633,-2.045354 2.01123,-2.045354 z"
       style="fill:#4b9a00;fill-opacity:1;stroke:#4b9a00;stroke-width:0.264583;stroke-linecap:butt;stroke-opacity:1;paint-order:markers fill stroke"
       id="path38" />
    <path
       d="m 224.04797,89.455127 c -0.58914,0 -1.00562,0.485378 -1.00562,1.07487 0,0.589137 0.41648,0.970999 1.00562,0.970999 h 4.57698 c -1.52646,3.779309 -5.44404,13.486854 -5.99861,14.839404 -0.27763,0.62442 0.20826,1.35237 0.93639,1.35237 h 6.06732 c 0.58915,0 0.97099,-0.48563 0.97099,-1.00562 0,-0.55492 -0.38184,-1.04025 -0.97099,-1.04025 h -4.57698 c 1.66439,-4.16066 5.40941,-13.453047 5.96398,-14.770672 0.24236,-0.554567 -0.0352,-1.109446 -0.55449,-1.317231 -0.13936,-0.0695 -0.3814,-0.10387 -0.6594,-0.10387 z"
       style="fill:#4b9a00;fill-opacity:1;stroke:#4b9a00;stroke-width:0.264583;stroke-linecap:butt;stroke-opacity:1;paint-order:markers fill stroke"
       id="path39" />
    <path
       d="m 241.14977,82.889119 c -0.25141,-0.0043 -0.51165,0.09962 -0.73692,0.325046 -0.41627,0.415925 -2.53082,2.530829 -2.94711,2.947106 -0.38169,0.381352 -0.41627,0.970605 0,1.421101 0.41629,0.381354 1.04063,0.381354 1.42163,0 0.41627,-0.415925 2.53153,-2.531182 2.94711,-2.947107 0.41627,-0.415925 0.41627,-1.039749 0,-1.4211 -0.1905,-0.20814 -0.43333,-0.320723 -0.68471,-0.325046 z"
       style="fill:#4b9a00;fill-opacity:1;stroke:#4b9a00;stroke-width:0.264583;stroke-linecap:butt;stroke-opacity:1;paint-order:markers fill stroke"
       id="path41" />
    <path
       d="m 235.10774,89.455127 c -0.58912,0 -1.0051,0.450704 -1.0051,1.005623 v 13.21005 c 0,2.01118 1.59523,4.02197 4.02199,4.02197 2.42744,0 4.02198,-1.97622 4.02198,-4.02197 V 90.46075 c 0,-0.554919 -0.38116,-1.005623 -0.97102,-1.005623 -0.52033,0 -1.00563,0.450704 -1.00563,1.005623 v 13.17542 c 0,1.14406 -0.93585,2.01073 -2.04533,2.01073 -1.07492,0 -2.01126,-0.86662 -2.01126,-1.9761 V 90.46075 c 0,-0.554919 -0.45069,-1.005623 -1.00563,-1.005623 z"
       style="fill:#4b9a00;fill-opacity:1;stroke:#4b9a00;stroke-width:0.264583;stroke-linecap:butt;stroke-opacity:1;paint-order:markers fill stroke"
       id="path40" />
    <path
       d="m 172.04648,79.365305 v 1.432986 2.26291 l 0.005,-0.0016 c 0.0201,0.297747 0.31988,0.754343 0.31988,0.995289 0,0.240596 -0.29977,0.700127 -0.31988,0.997873 l -0.005,-0.0016 v 2.282547 2.336292 l 0.005,-0.0016 c 0.0201,0.296686 0.31988,0.753825 0.31988,0.99477 0,0.240596 -0.29977,0.700998 -0.31988,0.99839 l -0.005,-0.0016 v 2.205551 6.536037 5.26221 c 2.03271,1.28199 4.48077,2.42384 6.93965,2.34094 -3.26533,3.98815 -8.22407,6.53759 -13.76868,6.53759 -9.68375,0 -17.5799,-7.77764 -17.78238,-17.413412 1.85914,-0.01799 3.68734,-0.01161 5.19194,0.02119 v -3.284553 l -0.003,-2.205551 -0.004,0.0016 c -0.0193,-0.297392 -0.32041,-0.757793 -0.32041,-0.998389 0,-0.240946 0.30099,-0.698085 0.32041,-0.99477 l 0.004,0.0016 0.003,-2.336292 -0.003,-2.282547 -0.004,0.0016 c -0.0193,-0.297747 -0.32041,-0.757278 -0.32041,-0.997874 0,-0.240945 0.30099,-0.697542 0.32041,-0.995288 l 0.004,0.0016 v -0.51263 c -3.74264,3.342571 -6.10092,8.202168 -6.10092,13.615191 0,0.196495 0.009,0.39144 0.0151,0.586526 v 5.29e-4 c 0,10.31522 8.36234,18.67741 18.67791,18.67741 10.31523,0 18.67742,-8.36219 18.67742,-18.67741 0,-7.905046 -4.91258,-14.65853 -11.84889,-17.385501 z m 6.39185,12.664342 c 0,0 -1.14591,3.10275 -6.13243,4.289142 3.15418,-4.138435 6.13243,-4.289142 6.13243,-4.289142 z m -4.2514,4.474144 c 3.81788,-0.171037 5.57951,1.646412 5.57951,1.646412 0,0 -2.78342,1.067673 -7.34272,-1.440222 0.63021,-0.116681 1.2178,-0.181756 1.76321,-0.20619 z m -2.00816,0.509013 c 4.22275,2.905832 4.17184,6.211506 4.17184,6.211506 0,0 -2.72298,-1.21441 -4.17184,-6.211506 z"
       style="fill:#4b9a00;fill-opacity:1;stroke:#4b9a00;stroke-width:0.264583;stroke-linecap:butt;stroke-opacity:1;paint-order:markers fill stroke"
       id="path33" />
    <path
       d="m 160.14541,78.506441 c -1.07175,0.280459 -2.10444,0.657551 -3.08975,1.118278 v 1.174088 2.262394 l 0.004,-0.0016 c 0.0201,0.297747 0.32041,0.753989 0.32041,0.995289 0,0.240596 -0.3003,0.700482 -0.32041,0.997873 l -0.004,-0.0021 v 2.283579 2.335776 l 0.004,-0.0021 c 0.0201,0.296685 0.32041,0.754692 0.32041,0.995286 0,0.240948 -0.3003,0.700997 -0.32041,0.998389 l -0.004,-0.0016 v 2.20555 3.75326 c 1.03648,0.251884 2.06669,0.561195 3.08975,0.92914 v -4.6824 -2.20555 l -0.003,0.0016 c -0.0212,-0.297392 -0.32041,-0.757441 -0.32041,-0.998389 0,-0.240594 0.29924,-0.698601 0.32041,-0.995286 l 0.003,0.0021 v -2.335776 -2.283579 l -0.003,0.0021 c -0.0212,-0.297391 -0.32041,-0.757277 -0.32041,-0.997873 0,-0.2413 0.29924,-0.697542 0.32041,-0.995289 l 0.003,0.0016 v -2.262394 z"
       style="fill:#4b9a00;fill-opacity:1;stroke:#4b9a00;stroke-width:0.264583;stroke-linecap:butt;stroke-opacity:1;paint-order:markers fill stroke"
       id="path34" />
    <path
       d="m 164.77768,77.911645 c -0.0677,0 -0.13467,0.0045 -0.20206,0.0052 v 2.881993 2.262393 l 0.004,-0.0016 c 0.0204,0.297746 0.31988,0.753988 0.31988,0.995288 0,0.240597 -0.29943,0.700482 -0.31988,0.997874 l -0.004,-0.0021 v 2.283579 2.335776 l 0.004,-0.0021 c 0.0204,0.296686 0.31988,0.754693 0.31988,0.995286 0,0.240948 -0.29943,0.700998 -0.31988,0.998389 l -0.004,-0.0016 v 2.205551 6.536036 0.15348 c 1.02307,0.56656 2.03698,1.20393 3.04168,1.91513 v -2.06861 -6.536036 -2.205551 l -0.004,0.0016 c -0.0198,-0.297391 -0.31884,-0.757441 -0.31884,-0.998389 0,-0.240593 0.29908,-0.6986 0.31884,-0.995286 l 0.004,0.0021 v -2.335776 -2.283579 l -0.004,0.0021 c -0.0198,-0.297392 -0.31884,-0.757277 -0.31884,-0.997874 0,-0.2413 0.29908,-0.697542 0.31884,-0.995288 l 0.004,0.0016 v -2.262393 -2.666503 c -0.92533,-0.144285 -1.87304,-0.22066 -2.83858,-0.22066 z"
       style="fill:#4b9a00;fill-opacity:1;stroke:#4b9a00;stroke-width:0.264583;stroke-linecap:butt;stroke-opacity:1;paint-order:markers fill stroke"
       id="path35" />
  </g>
</svg>
